# xmcd CD database file generated by Grip 3.2.0
# 
# Track frame offsets:
#       150
#       16887
#       31817
#       45970
#       64695
#       83880
#       103742
#       105382
#       116657
#       133872
#       146642
#       161390
#       176305
#       192557
#       205700
# 
# Disc length: 2804 seconds
# 
# Revision: 3
# Processed by: cddbd v1.5.1PL0 Copyright (c) Steve Scherf et al.
# Submitted via: Grip 3.2.0
# 
DISCID=c00af20f
DTITLE=Bandabardo' - Il Circo Mangione
DYEAR=1996
DGENRE=Rock
TTITLE0=Uomini celesti
TTITLE1=W Fernandez
TTITLE2=Sogni grandiosi
TTITLE3=En cherchant Loulou
TTITLE4=Ho la testa
TTITLE5=L'inquilina del 4° piano
TTITLE6=B.B.
TTITLE7=Café d'hiver
TTITLE8=Finta bionda
TTITLE9=Succederà
TTITLE10=Poésie d'un jour
TTITLE11=Gréta - Scandalo
TTITLE12=Héros
TTITLE13=Aò?!
TTITLE14=B.B.(live)
EXTD=
EXTT0=
EXTT1=
EXTT2=
EXTT3=
EXTT4=
EXTT5=
EXTT6=
EXTT7=
EXTT8=
EXTT9=
EXTT10=
EXTT11=
EXTT12=
EXTT13=
EXTT14=
PLAYORDER=
